<svg width="161" height="138" viewBox="0 0 161 138" fill="none" xmlns="http://www.w3.org/2000/svg">
<path d="M92.0886 9.22769L49.9288 16.3459C36.8905 18.563 25.2643 25.8602 17.6003 36.6386C9.93721 47.4165 6.86032 60.7946 9.04789 73.8373L13.7933 101.943C15.3553 111.267 20.5635 119.585 28.2674 125.063C35.9715 130.542 45.5381 132.729 54.8575 131.145C63.8378 129.48 71.2862 123.227 74.4804 114.671C75.1951 113.293 75.9119 111.892 76.7643 110.521C78.7274 106.92 82.3497 104.526 86.4319 104.133C90.4328 103.166 94.6541 104.249 97.6948 107.023C98.9163 108.01 100.054 109.096 101.181 110.163C107.007 117.196 116.095 120.657 125.124 119.281C134.446 117.717 142.764 112.508 148.241 104.805C153.719 97.1013 155.908 87.5357 154.325 78.2161L149.579 50.11C147.363 37.0714 140.065 25.4454 129.288 17.7813C118.51 10.1169 105.132 7.04124 92.0891 9.2276L92.0886 9.22769ZM140.273 80.5895C141.227 86.1813 139.914 91.9234 136.627 96.5461C133.339 101.17 128.347 104.293 122.752 105.228C120.483 105.502 118.181 105.14 116.105 104.183C114.029 103.225 112.262 101.71 110.996 99.8054C109.595 98.4884 108.178 97.1523 106.731 95.9508C100.501 90.571 92.1193 88.4001 84.0596 90.0806C75.9303 91.147 68.756 95.9286 64.6435 103.021C63.6092 104.641 62.7127 106.397 61.8232 108.1L61.822 108.1C61.2526 110.318 60.0782 112.333 58.4297 113.92C56.7803 115.509 54.7224 116.607 52.4852 117.092C46.8938 118.048 41.1506 116.737 36.5266 113.449C31.9038 110.161 28.7802 105.168 27.8462 99.5713L23.1008 71.4652C21.5434 62.1483 23.7427 52.5955 29.2162 44.8986C34.6893 37.2005 42.9922 31.9875 52.3023 30.3998L94.4621 23.2815C103.778 21.7195 113.333 23.9173 121.031 29.3916C128.73 34.8658 133.943 43.1696 135.528 52.4831L140.273 80.5895Z" fill="white"/>
<path d="M112.668 45.5025C113.323 49.3833 110.708 53.06 106.827 53.7153C102.946 54.3705 99.2698 51.7561 98.6146 47.8753C97.9594 43.9945 100.574 40.3168 104.454 39.6616C108.335 39.0064 112.013 41.6217 112.668 45.5025Z" fill="white"/>
<path d="M116.227 66.5824C116.883 70.4632 114.267 74.1399 110.386 74.7951C106.505 75.4504 102.829 72.836 102.174 68.9552C101.518 65.0744 104.133 61.3967 108.013 60.7415C111.894 60.0863 115.572 62.7016 116.227 66.5824Z" fill="white"/>
<path d="M71.101 56.1321L64.0735 57.3186L62.8872 50.2924C62.4634 47.7821 60.7331 45.6884 58.3473 44.8003C55.9615 43.9122 53.2819 44.3646 51.3199 45.9868C49.3579 47.609 48.4109 50.1547 48.8348 52.665L50.0211 59.6912L42.9937 60.8778C40.4834 61.3016 38.3899 63.0331 37.5018 65.4189C36.6136 67.8047 37.0659 70.4831 38.6881 72.4451C40.3103 74.4071 42.8562 75.3552 45.3665 74.9314L52.3939 73.7449L53.5802 80.7711C54.004 83.2814 55.7344 85.3751 58.1201 86.2632C60.5059 87.1513 63.1855 86.6989 65.1476 85.0767C67.1095 83.4545 68.0565 80.9088 67.6327 78.3985L66.4463 71.3723L73.4738 70.1858C75.9841 69.7619 78.0776 68.0304 78.9657 65.6446C79.8538 63.2588 79.4016 60.5804 77.7794 58.6184C76.1572 56.6564 73.6113 55.7083 71.101 56.1321Z" fill="white"/>
</svg>
